<svg width="187" height="35" viewBox="0 0 187 35" fill="none" xmlns="http://www.w3.org/2000/svg">
<path d="M0.877131 34.4672V23.4834H2.69685C3.31651 23.0383 3.88381 22.4099 4.39875 21.5983C4.91368 20.7779 5.35442 19.6476 5.72099 18.2076C6.08755 16.7588 6.34938 14.8649 6.50648 12.5258L7.26578 1.1886H25.0048V23.4834H27.9373V34.441H22.4912V28H6.3232V34.4672H0.877131ZM9.2426 23.4834H19.5587V5.86227H12.3715L11.9525 12.5258C11.8391 14.2976 11.6514 15.8685 11.3896 17.2388C11.1365 18.609 10.8267 19.8091 10.4601 20.8389C10.1023 21.8601 9.69644 22.7416 9.2426 23.4834ZM31.3836 28V1.1886H49.4499V5.86227H37.0522V12.2509H48.5204V16.9246H37.0522V23.3263H49.5022V28H31.3836ZM63.7098 28.3666C61.7548 28.3666 60.0136 28.0305 58.4863 27.3585C56.9677 26.6778 55.7676 25.7439 54.8861 24.5569C54.0134 23.3612 53.5639 21.9823 53.5377 20.42H59.2456C59.2805 21.0746 59.4943 21.6506 59.8871 22.1481C60.2886 22.6368 60.8209 23.0165 61.4842 23.2871C62.1475 23.5576 62.8938 23.6929 63.7229 23.6929C64.5869 23.6929 65.3506 23.5402 66.0139 23.2347C66.6772 22.9292 67.1965 22.5059 67.5718 21.9648C67.9471 21.4237 68.1347 20.7997 68.1347 20.0927C68.1347 19.3771 67.934 18.7443 67.5325 18.1945C67.1398 17.6359 66.5725 17.1995 65.8306 16.8853C65.0975 16.5711 64.2247 16.414 63.2123 16.414H60.7118V12.2509H63.2123C64.0676 12.2509 64.8226 12.1026 65.4772 11.8058C66.1405 11.5091 66.6554 11.0989 67.022 10.5752C67.3885 10.0428 67.5718 9.42316 67.5718 8.71622C67.5718 8.04419 67.4103 7.45507 67.0874 6.94886C66.7732 6.43393 66.3281 6.03246 65.7521 5.74444C65.1848 5.45643 64.5215 5.31242 63.7622 5.31242C62.9941 5.31242 62.2916 5.45207 61.6544 5.73135C61.0173 6.00191 60.5067 6.39029 60.1227 6.8965C59.7387 7.4027 59.5336 7.99618 59.5074 8.67694H54.0745C54.1006 7.13214 54.5414 5.77063 55.3967 4.59239C56.252 3.41416 57.4041 2.49339 58.8529 1.83008C60.3104 1.15805 61.9555 0.822038 63.7884 0.822038C65.6386 0.822038 67.2576 1.15805 68.6453 1.83008C70.033 2.50211 71.1109 3.40979 71.8789 4.55312C72.6557 5.68771 73.0397 6.96195 73.031 8.37584C73.0397 9.87699 72.5727 11.1294 71.6302 12.1331C70.6963 13.1368 69.4788 13.7739 67.9776 14.0445V14.2539C69.9501 14.507 71.4512 15.1921 72.4811 16.3093C73.5197 17.4177 74.0346 18.8054 74.0259 20.4724C74.0346 21.9997 73.5939 23.3569 72.7037 24.5438C71.8222 25.7308 70.6047 26.6647 69.0511 27.3454C67.4976 28.0262 65.7172 28.3666 63.7098 28.3666ZM101.05 1.1886V28H95.4469V5.79681H84.6071V28H79.0039V1.1886H101.05Z" fill="black"/>
<path d="M106.447 28V1.1886H117.025C119.058 1.1886 120.791 1.57698 122.222 2.35374C123.654 3.12178 124.745 4.19092 125.495 5.56116C126.254 6.92268 126.634 8.49366 126.634 10.2741C126.634 12.0545 126.25 13.6255 125.482 14.987C124.714 16.3486 123.601 17.409 122.144 18.1683C120.695 18.9276 118.941 19.3072 116.881 19.3072H110.139V14.7645H115.965C117.055 14.7645 117.954 14.5768 118.661 14.2016C119.377 13.8175 119.909 13.2895 120.259 12.6175C120.616 11.9367 120.795 11.1556 120.795 10.2741C120.795 9.38388 120.616 8.60712 120.259 7.94382C119.909 7.27179 119.377 6.75249 118.661 6.38593C117.946 6.01064 117.038 5.82299 115.938 5.82299H112.116V28H106.447ZM154.954 14.5943C154.954 17.5181 154.4 20.0055 153.292 22.0565C152.192 24.1075 150.691 25.6741 148.788 26.7563C146.894 27.8298 144.765 28.3666 142.4 28.3666C140.017 28.3666 137.879 27.8254 135.985 26.7432C134.091 25.661 132.594 24.0944 131.494 22.0434C130.395 19.9924 129.845 17.5093 129.845 14.5943C129.845 11.6705 130.395 9.18315 131.494 7.13214C132.594 5.08114 134.091 3.51889 135.985 2.44539C137.879 1.36315 140.017 0.822038 142.4 0.822038C144.765 0.822038 146.894 1.36315 148.788 2.44539C150.691 3.51889 152.192 5.08114 153.292 7.13214C154.4 9.18315 154.954 11.6705 154.954 14.5943ZM149.207 14.5943C149.207 12.7004 148.923 11.1032 148.356 9.80281C147.798 8.50239 147.008 7.51616 145.987 6.84413C144.965 6.1721 143.77 5.83609 142.4 5.83609C141.029 5.83609 139.834 6.1721 138.812 6.84413C137.791 7.51616 136.997 8.50239 136.43 9.80281C135.871 11.1032 135.592 12.7004 135.592 14.5943C135.592 16.4882 135.871 18.0854 136.43 19.3858C136.997 20.6862 137.791 21.6724 138.812 22.3445C139.834 23.0165 141.029 23.3525 142.4 23.3525C143.77 23.3525 144.965 23.0165 145.987 22.3445C147.008 21.6724 147.798 20.6862 148.356 19.3858C148.923 18.0854 149.207 16.4882 149.207 14.5943ZM169.758 4.06873H175.753C177.9 4.06873 179.803 4.52257 181.461 5.43025C183.128 6.33792 184.433 7.61653 185.376 9.26606C186.327 10.9069 186.803 12.8357 186.803 15.0525C186.803 17.1995 186.327 19.0716 185.376 20.6688C184.433 22.2659 183.128 23.5096 181.461 24.3998C179.803 25.2813 177.9 25.7221 175.753 25.7221H169.758C167.602 25.7221 165.69 25.2857 164.023 24.4129C162.356 23.5314 161.047 22.2921 160.096 20.6949C159.153 19.0978 158.682 17.2126 158.682 15.0394C158.682 12.8226 159.158 10.8938 160.109 9.25297C161.069 7.60344 162.383 6.3292 164.05 5.43025C165.717 4.52257 167.619 4.06873 169.758 4.06873ZM169.758 8.80786C168.605 8.80786 167.589 9.03914 166.707 9.50171C165.834 9.95554 165.154 10.645 164.665 11.5702C164.176 12.4953 163.932 13.6517 163.932 15.0394C163.932 16.366 164.181 17.4701 164.678 18.3516C165.184 19.2331 165.874 19.892 166.746 20.3284C167.619 20.7648 168.623 20.983 169.758 20.983H175.793C176.936 20.983 177.935 20.7604 178.791 20.3153C179.655 19.8702 180.322 19.2069 180.794 18.3254C181.274 17.4439 181.514 16.3529 181.514 15.0525C181.514 13.6648 181.274 12.5084 180.794 11.5833C180.322 10.6581 179.655 9.96427 178.791 9.50171C177.935 9.03914 176.936 8.80786 175.793 8.80786H169.758ZM175.439 0.717307V29.0997H170.059V0.717307H175.439Z" fill="#287BB7"/>
</svg>
