<svg width="16" height="20" viewBox="0 0 16 20" fill="none" xmlns="http://www.w3.org/2000/svg">
<path d="M4.52876 0.957839L4.52865 0.957872L3.67485 1.21508L3.45735 1.28721C2.8327 1.51736 2.28167 1.9118 1.86239 2.42899C1.44156 2.94809 1.16918 3.57147 1.07416 4.23294L4.52876 0.957839ZM4.52876 0.957839C4.94446 0.832502 5.39055 0.853325 5.79277 1.01684C6.19174 1.17903 6.52367 1.47191 6.73428 1.84734M4.52876 0.957839L6.73428 1.84734M6.73428 1.84734L6.81358 2.007L7.60406 3.7635C7.60406 3.76351 7.60407 3.76351 7.60407 3.76352C7.80492 4.20989 7.87012 4.70546 7.79155 5.18859C7.71355 5.66828 7.49723 6.1147 7.16926 6.47313L7.0233 6.61799L5.77735 7.78032L5.77734 7.78031L5.77466 7.78285C5.57764 7.96939 5.53182 8.22189 5.52733 8.40869C5.52257 8.60709 5.5611 8.828 5.62653 9.05912C5.75828 9.52448 6.02633 10.1246 6.44499 10.8499L6.44501 10.8499C6.82306 11.5047 7.17535 12.0019 7.48308 12.3468C7.63653 12.5188 7.78727 12.6625 7.9328 12.7696C8.06739 12.8686 8.24576 12.9729 8.44926 12.9953L8.47656 12.9983H8.50403H8.55563H8.60238L8.64833 12.9897L8.71193 12.9777L8.73906 12.9725L8.76546 12.9645L11.2255 12.2121L11.2258 12.2119C11.4646 12.1387 11.7194 12.1358 11.9598 12.2036C12.1962 12.2703 12.4088 12.4025 12.573 12.5849L12.6663 12.7027L14.2882 14.9497C14.2882 14.9497 14.2882 14.9498 14.2882 14.9498C14.5408 15.2998 14.6667 15.7255 14.6452 16.1567C14.6237 16.5844 14.4585 16.9922 14.1763 17.3141L14.0454 17.4492L13.403 18.0585L6.73428 1.84734ZM9.47576 18.8038C10.133 19.0687 10.8525 19.1392 11.5487 19.0071C12.2448 18.875 12.8883 18.5459 13.4028 18.0587L9.47576 18.8038ZM9.47576 18.8038C7.30085 17.9271 5.26356 15.8969 3.37391 12.624L9.47576 18.8038ZM3.37383 12.6239C1.4805 9.34249 0.740396 6.55932 1.07415 4.23301L3.37383 12.6239Z" fill="#287BB7" stroke="white"/>
</svg>
