<svg width="24" height="24" viewBox="0 0 24 24" fill="none" xmlns="http://www.w3.org/2000/svg">
<path d="M8.52876 2.95784L8.52865 2.95787L7.67485 3.21508L7.45735 3.28721C6.8327 3.51736 6.28167 3.9118 5.86239 4.42899C5.44156 4.94809 5.16918 5.57147 5.07416 6.23294L8.52876 2.95784ZM8.52876 2.95784C8.94446 2.8325 9.39055 2.85332 9.79277 3.01684C10.1917 3.17903 10.5237 3.47191 10.7343 3.84734M8.52876 2.95784L10.7343 3.84734M10.7343 3.84734L10.8136 4.007L11.6041 5.7635C11.6041 5.76351 11.6041 5.76351 11.6041 5.76352C11.8049 6.20989 11.8701 6.70546 11.7916 7.18859C11.7135 7.66828 11.4972 8.1147 11.1693 8.47313L11.0233 8.61799L9.77735 9.78032L9.77734 9.78031L9.77466 9.78285C9.57764 9.96939 9.53182 10.2219 9.52733 10.4087C9.52257 10.6071 9.5611 10.828 9.62653 11.0591C9.75828 11.5245 10.0263 12.1246 10.445 12.8499L10.445 12.8499C10.8231 13.5047 11.1754 14.0019 11.4831 14.3468C11.6365 14.5188 11.7873 14.6625 11.9328 14.7696C12.0674 14.8686 12.2458 14.9729 12.4493 14.9953L12.4766 14.9983H12.504H12.5556H12.6024L12.6483 14.9897L12.7119 14.9777L12.7391 14.9725L12.7655 14.9645L15.2255 14.2121L15.2258 14.2119C15.4646 14.1387 15.7194 14.1358 15.9598 14.2036C16.1962 14.2703 16.4088 14.4025 16.573 14.5849L16.6663 14.7027L18.2882 16.9497C18.2882 16.9497 18.2882 16.9498 18.2882 16.9498C18.5408 17.2998 18.6667 17.7255 18.6452 18.1567C18.6237 18.5844 18.4585 18.9922 18.1763 19.3141L18.0454 19.4492L17.403 20.0585L10.7343 3.84734ZM13.4758 20.8038C14.133 21.0687 14.8525 21.1392 15.5487 21.0071C16.2448 20.875 16.8883 20.5459 17.4028 20.0587L13.4758 20.8038ZM13.4758 20.8038C11.3009 19.9271 9.26356 17.8969 7.37391 14.624L13.4758 20.8038ZM7.37383 14.6239C5.4805 11.3425 4.7404 8.55932 5.07415 6.23301L7.37383 14.6239Z" fill="#287BB7" stroke="white"/>
</svg>
